<?xml version="1.0" encoding="UTF-8"?>
<svg id="Layer_1" data-name="Layer 1" xmlns="http://www.w3.org/2000/svg" viewBox="0 0 1000 1000">
  <defs>
    <style>
      .cls-1 {
        fill: #fff;
      }
    </style>
  </defs>
  <g>
    <polygon class="cls-1" points="448.71 569.99 500 451.19 551.29 569.99 572.41 618.68 602.76 618.73 551.29 500.07 500 381.27 448.71 500.07 397.24 618.73 427.59 618.68 448.71 569.99"/>
    <polygon class="cls-1" points="500 514.39 522.53 566.59 545.15 618.73 500 618.66 454.85 618.73 477.47 566.59 500 514.39"/>
  </g>
  <g>
    <polygon class="cls-1" points="320.83 744.5 500 329.49 679.17 744.5 752.96 914.61 858.98 914.76 679.17 500.25 500 85.24 320.83 500.25 141.02 914.76 247.04 914.61 320.83 744.5"/>
    <polygon class="cls-1" points="500 550.28 578.72 732.63 657.73 914.76 500 914.54 342.27 914.76 421.28 732.63 500 550.28"/>
  </g>
</svg>